<svg width="24" height="24" viewBox="0 0 24 24" fill="none" xmlns="http://www.w3.org/2000/svg">
<path d="M11.9982 0L12.0366 0.00240011L12.1399 0.00839996C12.2833 0.0250134 12.4225 0.0672887 12.5509 0.1332L12.677 0.2076L12.7936 0.2988L12.8128 0.3168L13.1096 0.5688C15.5334 2.57948 18.5968 3.65916 21.7474 3.6132L22.1583 3.6012C22.427 3.58896 22.692 3.66708 22.9109 3.82308C23.1299 3.97907 23.2901 4.2039 23.3659 4.4616C23.9563 6.46749 24.137 8.57145 23.8972 10.6485C23.6574 12.7255 23.0019 14.7331 21.9699 16.5522C20.9378 18.3712 19.5501 19.9645 17.8894 21.2373C16.2286 22.5102 14.3285 23.4366 12.3021 23.9616C12.1044 24.0128 11.8968 24.0128 11.699 23.9616C9.67249 23.4367 7.77232 22.5104 6.11139 21.2376C4.45047 19.9648 3.06268 18.3716 2.03049 16.5525C0.998301 14.7335 0.342783 12.7257 0.102889 10.6487C-0.137004 8.57161 0.0436221 6.46757 0.634034 4.4616C0.709863 4.2039 0.870063 3.97907 1.08899 3.82308C1.30792 3.66708 1.57292 3.58896 1.84158 3.6012C5.27277 3.75781 8.63024 2.57423 11.2027 0.3012L11.258 0.258L11.3217 0.2088C11.4028 0.15353 11.4903 0.108394 11.5824 0.0744L11.6725 0.0468L11.7158 0.0348C11.7633 0.0230775 11.8114 0.014261 11.86 0.00839996L11.9633 0.00240011L11.9982 0ZM12.0006 2.7552L11.7891 2.9172C9.25094 4.80879 6.19702 5.88517 3.0323 6.0036L2.71509 6.0108L2.6382 6.3828C2.07738 9.3146 2.52803 12.3497 3.91663 14.9928L4.12089 15.3696C5.81774 18.3595 8.61529 20.5706 11.9189 21.5328L12.0006 21.5556V2.7552Z" fill="#404040"/>
</svg>
