<svg width="24" height="24" viewBox="0 0 24 24" fill="none" xmlns="http://www.w3.org/2000/svg">
<path d="M0 3.75C0 3.15326 0.252856 2.58097 0.702944 2.15901C1.15303 1.73705 1.76348 1.5 2.4 1.5H21.6C22.2365 1.5 22.847 1.73705 23.2971 2.15901C23.7471 2.58097 24 3.15326 24 3.75C24 4.34674 23.7471 4.91903 23.2971 5.34099C22.847 5.76295 22.2365 6 21.6 6H2.4C1.76348 6 1.15303 5.76295 0.702944 5.34099C0.252856 4.91903 0 4.34674 0 3.75Z" fill="#404040"/>
<path d="M19.875 8.25C20.4521 8.25 20.928 8.79981 20.9921 9.50875L21 9.675V18.225C21 20.5014 19.5949 22.3622 17.823 22.4929L17.625 22.5H6.375C4.57725 22.5 3.108 20.7199 3.00563 18.4767L3 18.225V9.675C3 8.88769 3.504 8.25 4.125 8.25H19.875ZM14.25 10.625H9.75L9.61838 10.6333C9.34494 10.6676 9.09294 10.8066 8.91009 11.024C8.72724 11.2413 8.62625 11.5218 8.62625 11.8125C8.62625 12.1032 8.72724 12.3837 8.91009 12.601C9.09294 12.8184 9.34494 12.9574 9.61838 12.9917L9.75 13H14.25L14.3816 12.9917C14.6551 12.9574 14.9071 12.8184 15.0899 12.601C15.2728 12.3837 15.3737 12.1032 15.3737 11.8125C15.3737 11.5218 15.2728 11.2413 15.0899 11.024C14.9071 10.8066 14.6551 10.6676 14.3816 10.6333L14.25 10.625Z" fill="#404040"/>
</svg>
