<svg width="24" height="24" viewBox="0 0 24 24" fill="none" xmlns="http://www.w3.org/2000/svg">
<path d="M23.9937 11.9766C23.9937 12.8203 23.3687 13.4813 22.6603 13.4813H21.3268L21.356 20.9906C21.356 21.1172 21.3476 21.2437 21.3351 21.3703V22.125C21.3351 23.1609 20.5893 24 19.6683 24H19.0016C18.9558 24 18.9099 24 18.8641 23.9953C18.8058 24 18.7474 24 18.6891 24H17.3348H16.3347C15.4138 24 14.6679 23.1609 14.6679 22.125V21V18C14.6679 17.1703 14.072 16.5 13.3345 16.5H10.6676C9.93001 16.5 9.33413 17.1703 9.33413 18V21V22.125C9.33413 23.1609 8.58823 24 7.66732 24H6.66723H5.33795C5.27545 24 5.21294 23.9953 5.15044 23.9906C5.10043 23.9953 5.05043 24 5.00043 24H4.3337C3.41279 24 2.66689 23.1609 2.66689 22.125V16.875C2.66689 16.8328 2.66689 16.7859 2.67106 16.7438V13.4813H1.33345C0.583383 13.4813 0 12.825 0 11.9766C0 11.5547 0.125011 11.1797 0.416702 10.8516L11.1009 0.375C11.3926 0.046875 11.726 0 12.0177 0C12.3094 0 12.6427 0.09375 12.8928 0.328125L23.5353 10.8516C23.8687 11.1797 24.0354 11.5547 23.9937 11.9766Z" fill="#404040"/>
</svg>
