<svg width="26" height="24" viewBox="0 0 26 24" fill="none" xmlns="http://www.w3.org/2000/svg">
<path d="M20.4963 2.604C21.2284 2.85166 21.8624 3.31134 22.3109 3.91962C22.7594 4.52789 23.0001 5.25478 23 6V20.4C23 21.3548 22.6049 22.2705 21.9017 22.9456C21.1984 23.6207 20.2446 24 19.25 24H6.75C5.75544 24 4.80161 23.6207 4.09835 22.9456C3.39509 22.2705 3 21.3548 3 20.4V6C2.99987 5.25478 3.24064 4.52789 3.6891 3.91962C4.13756 3.31134 4.7716 2.85166 5.50375 2.604C5.55855 3.84073 6.10892 5.00932 7.03992 5.86574C7.97092 6.72216 9.21058 7.20019 10.5 7.2H15.5C16.7389 7.20011 17.9338 6.75862 18.853 5.96113C19.7722 5.16364 20.3502 4.06693 20.475 2.8836L20.4963 2.604ZM15.5 0C16.163 0 16.7989 0.252856 17.2678 0.702944C17.7366 1.15303 18 1.76348 18 2.4C18 3.03652 17.7366 3.64697 17.2678 4.09706C16.7989 4.54714 16.163 4.8 15.5 4.8H10.5C9.83696 4.8 9.20107 4.54714 8.73223 4.09706C8.26339 3.64697 8 3.03652 8 2.4C8 1.76348 8.26339 1.15303 8.73223 0.702944C9.20107 0.252856 9.83696 0 10.5 0H15.5Z" fill="#404040"/>
</svg>
