<svg width="23" height="24" viewBox="0 0 23 24" fill="none" xmlns="http://www.w3.org/2000/svg">
<path d="M11.5 0C12.7226 0 13.9178 0.351894 14.9344 1.01118C15.951 1.67047 16.7434 2.60754 17.2112 3.7039C17.6791 4.80025 17.8016 6.00665 17.563 7.17054C17.3245 8.33443 16.7357 9.40352 15.8712 10.2426C15.0067 11.0818 13.9052 11.6532 12.706 11.8847C11.5069 12.1162 10.2639 11.9974 9.13431 11.5433C8.00473 11.0891 7.03927 10.3201 6.36 9.33342C5.68073 8.34672 5.31818 7.18669 5.31818 6L5.32436 5.7396C5.39349 4.1949 6.07434 2.73573 7.22492 1.66639C8.3755 0.59705 9.90698 8.9331e-05 11.5 0Z" fill="#404040"/>
<path d="M13.9286 14.25C15.5388 14.25 17.0831 14.892 18.2217 16.0348C19.3603 17.1776 20 18.7276 20 20.3438V21.5625C20 22.209 19.7441 22.829 19.2887 23.2861C18.8332 23.7432 18.2155 24 17.5714 24H5.42857C4.78447 24 4.16676 23.7432 3.71131 23.2861C3.25587 22.829 3 22.209 3 21.5625V20.3438C3 18.7276 3.63967 17.1776 4.77828 16.0348C5.91689 14.892 7.46119 14.25 9.07143 14.25H13.9286Z" fill="#404040"/>
</svg>
