<svg width="80" height="79" viewBox="0 0 80 79" fill="none" xmlns="http://www.w3.org/2000/svg">
<g clip-path="url(#clip0_472_641)">
<path d="M39.9921 0L40.4594 0.0278216L40.6931 0.0596185L40.9347 0.111288L41.3744 0.246421C41.678 0.358754 41.9667 0.508267 42.2339 0.69157L42.6458 1.01748L43.6558 1.88393C51.6459 8.54352 61.7441 12.1196 72.1299 11.9673L73.4845 11.9276C74.3701 11.887 75.2436 12.1458 75.9653 12.6625C76.687 13.1791 77.2151 13.9238 77.465 14.7773C79.4114 21.4211 80.0069 28.3896 79.2164 35.2689C78.4259 42.1482 76.2653 48.7978 72.8632 54.8227C69.461 60.8475 64.8867 66.1247 59.412 70.3405C53.9373 74.5563 47.674 77.6248 40.9941 79.3636C40.3422 79.5332 39.6578 79.5332 39.0058 79.3636C32.3257 77.6252 26.0619 74.557 20.5867 70.3414C15.1116 66.1258 10.5368 60.8487 7.13429 54.8238C3.73175 48.7989 1.57088 42.1492 0.780086 35.2697C-0.0107077 28.3902 0.584715 21.4213 2.53097 14.7773C2.78094 13.9238 3.30903 13.1791 4.03071 12.6625C4.7524 12.1458 5.62596 11.887 6.51156 11.9276C17.3541 12.4249 27.9911 8.84331 36.3402 1.88393L37.3819 0.98966L37.7621 0.69157C38.0293 0.508267 38.318 0.358754 38.6216 0.246421L39.0652 0.111288C39.2205 0.0736631 39.3779 0.0457867 39.5366 0.0278216L39.9921 0ZM40 27.8218C38.0015 27.8211 36.0766 28.5785 34.6112 29.9422C33.1457 31.3058 32.2481 33.1748 32.0982 35.1747L32.0784 35.7708L32.0982 36.367C32.1959 37.6572 32.6059 38.9039 33.2927 39.999C33.9795 41.094 34.9223 42.0043 36.0392 42.6508V49.6817L36.0669 50.1467C36.1862 51.1527 36.6837 52.075 37.4578 52.7252C38.232 53.3754 39.2243 53.7044 40.2321 53.645C41.2399 53.5856 42.1871 53.1424 42.8801 52.4057C43.5731 51.6691 43.9597 50.6947 43.9608 49.6817L43.9647 42.6547C45.4751 41.7796 46.6554 40.4287 47.3226 38.8117C47.9898 37.1947 48.1066 35.4019 47.6547 33.7115C47.2029 32.0211 46.2078 30.5276 44.8237 29.4627C43.4397 28.3978 41.7441 27.821 40 27.8218Z" fill="url(#paint0_linear_472_641)"/>
</g>
<defs>
<linearGradient id="paint0_linear_472_641" x1="39.9981" y1="79.4908" x2="39.9981" y2="0" gradientUnits="userSpaceOnUse">
<stop stop-color="#2847AE"/>
<stop offset="1" stop-color="#5473D9"/>
</linearGradient>
<clipPath id="clip0_472_641">
<rect width="80" height="79" fill="white"/>
</clipPath>
</defs>
</svg>
