<svg xmlns="http://www.w3.org/2000/svg" viewBox="0 0 20 20"><g id="Camada_2" data-name="Camada 2"><g id="Camada_1-2" data-name="Camada 1"><path d="M20,9.36V8.59l0-.73-.05-.55,0-.29C19.34,2.45,17.38.57,12.69.11l-.55,0-.58,0h-3l-.73,0-.55,0L7,.15C2.45.66.57,2.62.11,7.31l0,.55,0,.58v.3l0,.62v1.28l0,.62v.15l0,.73,0,.55,0,.29c.52,4.57,2.48,6.45,7.17,6.91l.55,0,.58,0h3l.73,0,.55,0,.29,0c4.57-.51,6.45-2.47,6.9-7.16l.05-.55,0-.58,0-.3V9.36Zm-6.2-.75-.08.1-4,4a1,1,0,0,1-1.32.08l-.1-.08-2-2a1,1,0,0,1-.08-1.32,1,1,0,0,1,1.4-.18l.1.08L9,10.58l3.29-3.29a1,1,0,0,1,1.5,1.32Z"/></g></g></svg>