<svg width="24" height="24" viewBox="0 0 24 24" fill="none" xmlns="http://www.w3.org/2000/svg">
<g clip-path="url(#clip0_385_381)">
<path d="M20 6C20.2549 6.00028 20.5 6.09788 20.6854 6.27285C20.8707 6.44782 20.9822 6.68695 20.9972 6.94139C21.0121 7.19584 20.9293 7.44638 20.7657 7.64183C20.6022 7.83729 20.3701 7.9629 20.117 7.993L20 8H19.919L19 19C19 19.7652 18.7077 20.5015 18.1827 21.0583C17.6578 21.615 16.9399 21.9501 16.176 21.995L16 22H8.00001C6.40201 22 5.09601 20.751 5.00801 19.25L5.00301 19.083L4.08001 8H4.00001C3.74513 7.99972 3.49997 7.90212 3.31464 7.72715C3.1293 7.55218 3.01777 7.31305 3.00283 7.05861C2.9879 6.80416 3.07068 6.55362 3.23427 6.35817C3.39786 6.16271 3.62991 6.0371 3.88301 6.007L4.00001 6H20ZM10.511 11.14C10.3015 11.0153 10.0536 10.9714 9.81402 11.0166C9.57441 11.0619 9.35959 11.1931 9.20995 11.3856C9.06032 11.5781 8.98617 11.8187 9.00147 12.062C9.01676 12.3054 9.12044 12.5347 9.29301 12.707L10.585 14L9.29301 15.293L9.21001 15.387C9.05459 15.588 8.98151 15.8406 9.00561 16.0935C9.0297 16.3464 9.14916 16.5807 9.33973 16.7488C9.53029 16.9168 9.77767 17.006 10.0316 16.9982C10.2856 16.9905 10.527 16.8863 10.707 16.707L12 15.415L13.293 16.707L13.387 16.79C13.588 16.9454 13.8406 17.0185 14.0935 16.9944C14.3465 16.9703 14.5807 16.8508 14.7488 16.6603C14.9168 16.4697 15.006 16.2223 14.9982 15.9684C14.9905 15.7144 14.8864 15.473 14.707 15.293L13.415 14L14.707 12.707L14.79 12.613C14.9454 12.412 15.0185 12.1594 14.9944 11.9065C14.9703 11.6536 14.8508 11.4193 14.6603 11.2512C14.4697 11.0832 14.2223 10.994 13.9684 11.0018C13.7144 11.0095 13.473 11.1137 13.293 11.293L12 12.585L10.707 11.293L10.613 11.21L10.511 11.14Z" fill="black"/>
<path d="M14 2C14.5304 2 15.0391 2.21071 15.4142 2.58579C15.7893 2.96086 16 3.46957 16 4C15.9997 4.25488 15.9021 4.50003 15.7272 4.68537C15.5522 4.8707 15.313 4.98223 15.0586 4.99717C14.8042 5.01211 14.5536 4.92933 14.3582 4.76574C14.1627 4.60214 14.0371 4.3701 14.007 4.117L14 4H10L9.993 4.117C9.9629 4.3701 9.83729 4.60214 9.64183 4.76574C9.44638 4.92933 9.19584 5.01211 8.94139 4.99717C8.68695 4.98223 8.44782 4.8707 8.27285 4.68537C8.09788 4.50003 8.00028 4.25488 8 4C7.99984 3.49542 8.19041 3.00943 8.5335 2.63945C8.87659 2.26947 9.34685 2.04284 9.85 2.005L10 2H14Z" fill="black"/>
</g>
<defs>
<clipPath id="clip0_385_381">
<rect width="24" height="24" fill="white"/>
</clipPath>
</defs>
</svg>
