<svg xmlns="http://www.w3.org/2000/svg" viewBox="0 0 20 20"><g id="Camada_2" data-name="Camada 2"><g id="Camada_1-2" data-name="Camada 1"><path d="M10,0h1.26l.3,0,.58,0,.55,0c4.69.45,6.65,2.33,7.16,6.9l0,.29.05.55,0,.73v2.67l0,.3,0,.58-.05.55c-.45,4.69-2.33,6.65-6.9,7.16l-.29,0-.55,0-.73,0h-.15l-.62,0H9.36l-.62,0h-.3l-.58,0-.55,0C2.62,19.43.66,17.55.14,13l0-.29,0-.55,0-.73v-.15l0-.62V9.36l0-.62v-.3l0-.58,0-.55C.57,2.62,2.45.66,7,.14l.29,0,.55,0,.73,0H10Zm0,13H9.88a1,1,0,0,0-.63.33,1,1,0,0,0,0,1.32,1,1,0,0,0,.63.33h.25a1,1,0,0,0,0-2Zm0-8a1,1,0,0,0-.67.25A1,1,0,0,0,9,5.88v4.24a1,1,0,0,0,.32.63A1,1,0,0,0,10,11a1,1,0,0,0,1-.88V5.88A1,1,0,0,0,10,5Z"/></g></g></svg>